<svg width="31" height="31" viewBox="0 0 31 31" fill="none" xmlns="http://www.w3.org/2000/svg">
<path fill-rule="evenodd" clip-rule="evenodd" d="M15.5 30.875C18.2775 30.8752 21.0032 30.1231 23.3876 28.6984C25.7719 27.2737 27.7258 25.2298 29.0416 22.7837C30.3574 20.3376 30.986 17.5807 30.8606 14.806C30.7353 12.0313 29.8606 9.34242 28.3296 7.02496L16.1064 20.6062C15.5355 21.2407 14.7477 21.6385 13.8982 21.7214C13.0487 21.8042 12.1989 21.566 11.5162 21.0538L5.93332 16.8667C5.57086 16.5948 5.33123 16.1901 5.26716 15.7416C5.20308 15.2931 5.31981 14.8375 5.59165 14.475C5.8635 14.1125 6.2682 13.8729 6.71673 13.8088C7.16525 13.7448 7.62086 13.8615 7.98332 14.1333L13.5662 18.3205L26.1156 4.37875C24.2976 2.64327 22.0818 1.37994 19.6623 0.69938C17.2429 0.0188161 14.6934 -0.058229 12.2373 0.47499C9.78114 1.00821 7.49315 2.13543 5.57367 3.75796C3.65418 5.38049 2.16173 7.44885 1.227 9.78194C0.292257 12.115 -0.0562663 14.6417 0.211942 17.1407C0.48015 19.6397 1.35691 22.0349 2.76546 24.1165C4.174 26.1981 6.07138 27.9026 8.29146 29.0809C10.5115 30.2591 12.9866 30.8751 15.5 30.875Z" fill="#166534"/>
</svg>
